<svg width="590" height="618" viewBox="0 0 590 618" fill="none" xmlns="http://www.w3.org/2000/svg">
<path d="M214.168 38.352C230.808 38.352 248.216 48.336 248.216 81.616C248.216 113.232 234.648 131.28 212.888 131.28C196.248 131.28 184.6 120.912 182.424 106.192H195.992C197.912 113.872 203.672 119.248 212.888 119.248C226.84 119.248 235.032 107.088 235.16 86.224H233.88C229.144 94.032 220.568 98.64 210.84 98.512C194.584 98.64 181.656 86.224 181.656 68.816C181.656 51.664 194.456 38.096 214.168 38.352ZM194.968 68.56C195.096 79.184 202.904 87.376 213.912 87.504C224.792 87.376 233.24 78.544 233.368 68.56C233.24 58.704 225.176 49.744 214.168 49.872C203.16 49.744 194.968 58.32 194.968 68.56ZM262.811 130V120.016L294.299 88.272C304.155 78.032 309.147 72.272 309.147 64.464C309.147 55.504 301.851 49.744 292.251 49.872C282.267 49.744 275.867 56.144 275.867 65.744H262.811C262.811 49.232 275.355 38.224 292.763 38.352C310.043 38.224 322.203 49.232 322.203 63.952C322.203 74.064 317.339 82.128 300.443 98.768L282.011 117.456V118.224H323.739V130H262.811ZM371.579 131.28C354.939 131.152 337.403 121.168 337.531 87.76C337.403 56.272 351.099 38.224 372.859 38.352C389.371 38.224 401.019 48.592 403.067 62.928H389.499C387.707 55.632 381.947 50.256 372.859 50.384C358.779 50.256 350.587 62.416 350.587 82.896H351.611C356.475 75.216 365.051 70.736 374.907 70.608C391.035 70.736 403.963 83.024 404.091 100.304C403.963 117.968 391.035 131.408 371.579 131.28ZM352.379 100.816C352.379 110.8 360.315 119.76 371.579 119.76C382.459 119.76 390.651 111.184 390.779 100.56C390.651 90.192 382.715 81.872 371.835 81.872C360.827 81.872 352.379 90.704 352.379 100.816Z" fill="black"/>
<path d="M371.832 579.648C355.192 579.648 337.784 569.664 337.784 536.384C337.784 504.768 351.352 486.72 373.112 486.72C389.752 486.72 401.4 497.088 403.576 511.808L390.008 511.808C388.088 504.128 382.328 498.752 373.112 498.752C359.16 498.752 350.968 510.912 350.84 531.776L352.12 531.776C356.856 523.968 365.432 519.36 375.16 519.488C391.416 519.36 404.344 531.776 404.344 549.184C404.344 566.336 391.544 579.904 371.832 579.648ZM391.032 549.44C390.904 538.816 383.096 530.624 372.088 530.496C361.208 530.624 352.76 539.456 352.632 549.44C352.76 559.296 360.824 568.256 371.832 568.128C382.84 568.256 391.032 559.68 391.032 549.44ZM323.189 488L323.189 497.984L291.701 529.728C281.845 539.968 276.853 545.728 276.853 553.536C276.853 562.496 284.149 568.256 293.749 568.128C303.733 568.256 310.133 561.856 310.133 552.256L323.189 552.256C323.189 568.768 310.645 579.776 293.237 579.648C275.957 579.776 263.797 568.768 263.797 554.048C263.797 543.936 268.661 535.872 285.557 519.232L303.989 500.544L303.989 499.776L262.261 499.776L262.261 488L323.189 488ZM214.421 486.72C231.061 486.848 248.597 496.832 248.469 530.24C248.597 561.728 234.901 579.776 213.141 579.648C196.629 579.776 184.981 569.408 182.933 555.072L196.501 555.072C198.293 562.368 204.053 567.744 213.141 567.616C227.221 567.744 235.413 555.584 235.413 535.104L234.389 535.104C229.525 542.784 220.949 547.264 211.093 547.392C194.965 547.264 182.037 534.976 181.909 517.696C182.037 500.032 194.965 486.592 214.421 486.72ZM233.621 517.184C233.621 507.2 225.685 498.24 214.421 498.24C203.541 498.24 195.349 506.816 195.221 517.44C195.349 527.808 203.285 536.128 214.165 536.128C225.173 536.128 233.621 527.296 233.621 517.184Z" fill="black"/>
<path d="M39.376 580.696L39.376 565.08L80.592 541.528L80.592 540.504L39.376 516.952L39.376 501.336L94.416 534.104L130 534.104L130 547.928L94.416 547.928L39.376 580.696ZM39.376 476.21L130 476.21L130 490.034L39.376 490.034L39.376 476.21ZM39.376 384.824L130 384.824L130 397.368L63.952 443.192L63.952 443.96L130 443.96L130 457.784L39.376 457.784L39.376 444.984L105.68 399.16L105.68 398.392L39.376 398.392L39.376 384.824ZM39.376 373.321L39.376 357.705L80.592 334.153L80.592 333.129L39.376 309.577L39.376 293.961L94.416 326.729L130 326.729L130 340.553L94.416 340.553L39.376 373.321ZM130 284.229L130 298.821L39.376 266.309L39.376 250.437L130 217.669L130 232.517L106.192 240.709L106.192 276.037L130 284.229ZM94.672 271.941L94.672 244.677L56.016 257.861L56.016 258.629L94.672 271.941ZM39.376 133.199L130 133.199L130 145.743L63.952 191.567L63.952 192.335L130 192.335L130 206.159L39.376 206.159L39.376 193.359L105.68 147.535L105.68 146.767L39.376 146.767L39.376 133.199ZM68.048 53.6C57.424 57.056 50.768 65.12 50.896 77.152C50.768 92.384 62.8 104.032 84.688 104.032C106.704 104.032 118.608 92.512 118.736 76.64C118.608 62.048 109.52 52.448 94.928 52.32L94.928 74.592L83.664 74.592L83.664 38.752L93.904 38.752C116.816 38.88 131.28 54.624 131.28 76.64C131.28 101.088 113.36 117.728 84.688 117.856C55.888 117.728 38.224 100.704 38.352 77.152C38.224 57.696 50.384 42.592 68.048 39.52L68.048 53.6Z" fill="black"/>
<path d="M550.624 38.304L550.624 53.92L509.408 77.472L509.408 78.496L550.624 102.048L550.624 117.664L495.584 84.896L460 84.896L460 71.072L495.584 71.072L550.624 38.304ZM550.624 142.79L460 142.79L460 128.966L550.624 128.966L550.624 142.79ZM550.624 234.176L460 234.176L460 221.632L526.048 175.808L526.048 175.04L460 175.04L460 161.216L550.624 161.216L550.624 174.016L484.32 219.84L484.32 220.608L550.624 220.608L550.624 234.176ZM550.624 245.679L550.624 261.295L509.408 284.847L509.408 285.871L550.624 309.423L550.624 325.039L495.584 292.271L460 292.271L460 278.447L495.584 278.447L550.624 245.679ZM460 334.771L460 320.179L550.624 352.691L550.624 368.563L460 401.331L460 386.483L483.808 378.291L483.808 342.963L460 334.771ZM495.328 347.059L495.328 374.323L533.984 361.139L533.984 360.371L495.328 347.059ZM550.624 485.801L460 485.801L460 473.257L526.048 427.433L526.048 426.665L460 426.665L460 412.841L550.624 412.841L550.624 425.641L484.32 471.465L484.32 472.233L550.624 472.233L550.624 485.801ZM521.952 565.4C532.576 561.944 539.232 553.88 539.104 541.848C539.232 526.616 527.2 514.968 505.312 514.968C483.296 514.968 471.392 526.488 471.264 542.36C471.392 556.952 480.48 566.552 495.072 566.68L495.072 544.408L506.336 544.408L506.336 580.248L496.096 580.248C473.184 580.12 458.72 564.376 458.72 542.36C458.72 517.912 476.64 501.272 505.312 501.144C534.112 501.272 551.776 518.296 551.648 541.848C551.776 561.304 539.616 576.408 521.952 579.48L521.952 565.4Z" fill="black"/>
</svg>
